<svg class="android-studio-lockup" xmlns="http://www.w3.org/2000/svg" viewBox="0 0 140 60">
  <title>Android Studio</title>
  <path class="android-studio-wordmark" d="M16.61,16.73a4.33,4.33,0,0,1,3.48,1.67V16.94h2.4V27.86H20.86a.77.77,0,0,1-.77-.77v-.7a4.31,4.31,0,0,1-3.48,1.68,5.42,5.42,0,0,1-5.25-5.68,5.42,5.42,0,0,1,5.25-5.67M17,18.9a3.27,3.27,0,0,0-3.25,3.5,3.26,3.26,0,1,0,6.5,0A3.27,3.27,0,0,0,17,18.9m8.17-2h2.4v1.49a3.75,3.75,0,0,1,3.31-1.7c2.53,0,4.17,1.79,4.17,4.56v6.57H33.46a.75.75,0,0,1-.77-.77V21.68c0-1.73-.87-2.78-2.27-2.77-1.59,0-2.81,1.24-2.81,3.58v5.37H26a.78.78,0,0,1-.77-.77Zm17-.21a4.33,4.33,0,0,1,3.48,1.67V11.49h2.39V27.86H46.49a.76.76,0,0,1-.77-.77v-.7a4.33,4.33,0,0,1-3.49,1.68A5.43,5.43,0,0,1,37,22.39a5.43,5.43,0,0,1,5.25-5.67m.44,2.18a3.27,3.27,0,0,0-3.25,3.5,3.26,3.26,0,1,0,6.5,0,3.27,3.27,0,0,0-3.25-3.5m8.17-2h2.4v1.95a3.06,3.06,0,0,1,2.87-2.06,4.91,4.91,0,0,1,.94.09v2.47a3.78,3.78,0,0,0-1.2-.2c-1.37,0-2.61,1.16-2.61,3.34v5.33H51.61a.76.76,0,0,1-.77-.77ZM63.51,28.08a5.68,5.68,0,1,1,5.71-5.68,5.63,5.63,0,0,1-5.71,5.68m0-2.23a3.27,3.27,0,0,0,3.27-3.45,3.28,3.28,0,1,0-6.56,0,3.27,3.27,0,0,0,3.29,3.45m8.86-11.28A1.61,1.61,0,1,1,74,13a1.62,1.62,0,0,1-1.6,1.61m-1.2,2.37h2.4V27.86H71.94a.76.76,0,0,1-.55-.23.77.77,0,0,1-.22-.54Zm9.62-.21a4.33,4.33,0,0,1,3.48,1.67V11.49h2.4V27.86H85a.77.77,0,0,1-.77-.77v-.7a4.31,4.31,0,0,1-3.48,1.68,5.43,5.43,0,0,1-5.26-5.68,5.43,5.43,0,0,1,5.26-5.67m.43,2.18A3.27,3.27,0,0,0,78,22.4a3.26,3.26,0,1,0,6.5,0,3.27,3.27,0,0,0-3.25-3.5M37.59,44.83V39.51H35.3V37.35h2.29V34.29H40v3.06h3.15v2.16H40v4.92c0,1.39.6,1.87,1.85,1.87a3.18,3.18,0,0,0,1.3-.22v2.16a5.76,5.76,0,0,1-1.8.25A3.43,3.43,0,0,1,37.59,44.83Zm37.55-2A5.77,5.77,0,1,1,80.9,48.6,5.69,5.69,0,0,1,75.14,42.86Zm9.07,0a3.32,3.32,0,1,0-3.31,3.49A3.31,3.31,0,0,0,84.21,42.86ZM28.25,45a2,2,0,0,0,2.27,1.63c1.08,0,1.79-.44,1.79-1.17s-.48-1.17-1.63-1.46l-1.81-.48a3.31,3.31,0,0,1-2.82-3.33c0-1.85,1.63-3.09,4.1-3.09s4,1.3,4.21,3.31H31.93a1.75,1.75,0,0,0-1.81-1.37c-.95,0-1.61.42-1.61,1.12S29,41.24,30,41.5l1.85.49c2,.51,2.94,1.61,2.94,3.33,0,2.1-1.76,3.26-4.32,3.26a5.58,5.58,0,0,1-3.31-1A3.31,3.31,0,0,1,25.73,45Zm23.92,1.85A3.62,3.62,0,0,1,49,48.59c-2.53,0-4.1-1.83-4.1-4.65V37.35h2.43v6.19c0,1.76.79,2.84,2.2,2.84,1.61,0,2.69-1.32,2.69-3.61V37.35h2.42v11H52.17Zm13.27,0A4.4,4.4,0,0,1,62,48.56,5.41,5.41,0,0,1,56.7,42.9,5.4,5.4,0,0,1,62,37.23a4.4,4.4,0,0,1,3.49,1.68V32h2.39V48.34H65.44ZM60,45.38a3,3,0,0,0,2.36,1,2.94,2.94,0,0,0,2.33-1,3.83,3.83,0,0,0,0-5,3,3,0,0,0-2.33-1,3,3,0,0,0-2.36,1A3.91,3.91,0,0,0,60,45.38ZM71.75,31.82a1.61,1.61,0,0,1,0,3.21,1.63,1.63,0,0,1-1.43-.79,1.59,1.59,0,0,1,0-1.63A1.63,1.63,0,0,1,71.75,31.82ZM73,37.4V48.3h-2.4V37.4Z"></path>
  <path fill="#073042" d="M109.32,16.06H100.9a3.1,3.1,0,0,0-3.09,3.1,3,3,0,0,0,3,3.09h8.6Z" style="--darkreader-inline-fill:#062635;" data-darkreader-inline-fill=""></path>
  <path fill="#4285f4" d="M128.5,43.61H100.89a3.1,3.1,0,0,1-3.08-3.09V19.14a3.1,3.1,0,0,0,3.29,3.11H124s4.5-.39,4.5,3Z" style="--darkreader-inline-fill:#0943a2;" data-darkreader-inline-fill=""></path>
  <path d="M113.92,28.74a1.72,1.72,0,1,0,.66,3.3,1.71,1.71,0,0,0-.66-3.3Z"></path>
  <path fill="#3870b2" d="M115.62,32.66a2.78,2.78,0,0,0-1.59-5h.09a2.63,2.63,0,0,1,.49,0V25.94a.55.55,0,0,0-.26-.49.54.54,0,0,0-.55,0,.55.55,0,0,0-.26.49v1.75a2.79,2.79,0,0,0-1.22,5l-5.09,10.88h3.32l2.35-5a1.22,1.22,0,0,1,1.1-.69,1.2,1.2,0,0,1,1.09.69l2.42,5h3.36Zm-1.7-.49a1.72,1.72,0,0,1-1.21-2.93,1.71,1.71,0,0,1,2.93,1.21,1.72,1.72,0,0,1-1.72,1.72Z" style="--darkreader-inline-fill:#2d5a8e;" data-darkreader-inline-fill=""></path>
  <path fill="#fff" d="M107.5,17.58h11.81v2.17H107.5Z" style="--darkreader-inline-fill:#181a1b;" data-darkreader-inline-fill=""></path>
  <path fill="#073042" d="M113,28.74a1.71,1.71,0,1,1-1.22.5A1.74,1.74,0,0,1,113,28.74Zm.68-1V25.94a.55.55,0,0,0-.26-.49.54.54,0,0,0-.55,0,.55.55,0,0,0-.26.49v1.75a2.79,2.79,0,0,0-1.22,5L105,46.44a1.52,1.52,0,0,0,.11,1.53,1.54,1.54,0,0,0,1.39.65,1.51,1.51,0,0,0,1.24-.9L112,38.57a1.23,1.23,0,0,1,1.1-.69,1.2,1.2,0,0,1,1.09.69l4.37,9.1a1.51,1.51,0,1,0,2.72-1.32L114.7,32.66a2.77,2.77,0,0,0,1-2.77,2.8,2.8,0,0,0-2-2.14" style="--darkreader-inline-fill:#062635;" data-darkreader-inline-fill=""></path>
  <path fill="#3ddc84" d="M117.6,19.49a.8.8,0,0,1-.58-1.37.81.81,0,0,1,1.38.57.8.8,0,0,1-.8.8m-8.89,0a.8.8,0,0,1-.57-1.37.81.81,0,1,1,1.14,1.14.79.79,0,0,1-.57.23m9.18-4.85,1.6-2.78a.34.34,0,0,0-.58-.34l-1.62,2.82a10.08,10.08,0,0,0-8.26,0l-1.63-2.82a.34.34,0,0,0-.29-.17.37.37,0,0,0-.29.17.34.34,0,0,0,0,.34l1.61,2.78a9.52,9.52,0,0,0-4.92,7.61h19.3a9.52,9.52,0,0,0-4.92-7.61" style="--darkreader-inline-fill:#1da069;" data-darkreader-inline-fill=""></path>
  <path fill="#073042" d="M125.73,28.18h-1.27a.16.16,0,0,0-.16.16l0,20.05a.16.16,0,0,0,.15.16h1.31a2.78,2.78,0,0,0,2.77-2.78V25.4A2.78,2.78,0,0,1,125.73,28.18Z" style="--darkreader-inline-fill:#062635;" data-darkreader-inline-fill=""></path>
</svg>