<svg version="1.1" viewBox="0.0 0.0 1536.0 192.0" fill="none" stroke="none" stroke-linecap="square" stroke-miterlimit="10" xmlns:xlink="http://www.w3.org/1999/xlink" xmlns="http://www.w3.org/2000/svg"><clipPath id="gf2c3f62a67_0_71.0"><path d="m0 0l1536.0 0l0 192.0l-1536.0 0l0 -192.0z" clip-rule="nonzero"/></clipPath><g clip-path="url(#gf2c3f62a67_0_71.0)"><path fill="#ffffff" d="m0 0l1536.0 0l0 192.0l-1536.0 0z" fill-rule="evenodd"/><path fill="#ffffff" d="m639.8289 91.664764l0 0c0 -22.943733 18.599548 -41.54331 41.543274 -41.54331l173.25989 0l0 0c11.017944 0 21.584656 4.376873 29.37555 12.167755c7.7908325 7.790882 12.167725 18.357586 12.167725 29.375553l0 0l0 0c0 22.943733 -18.599548 41.543304 -41.543274 41.543304l-173.25989 0c-22.943726 0 -41.543274 -18.599571 -41.543274 -41.543304z" fill-rule="evenodd"/><path stroke="#4285f4" stroke-width="8.0" stroke-miterlimit="400.0" stroke-linecap="butt" d="m639.8289 91.664764l0 0c0 -22.943733 18.599548 -41.54331 41.543274 -41.54331l173.25989 0l0 0c11.017944 0 21.584656 4.376873 29.37555 12.167755c7.7908325 7.790882 12.167725 18.357586 12.167725 29.375553l0 0l0 0c0 22.943733 -18.599548 41.543304 -41.543274 41.543304l-173.25989 0c-22.943726 0 -41.543274 -18.599571 -41.543274 -41.543304z" fill-rule="evenodd"/><path fill="#000000" d="m727.9085 82.18664l2.9375 0l0 16.3125l8.203125 0l0 2.765625l-11.140625 0l0 -19.078125zm17.909058 19.5q-1.453125 0 -2.609375 -0.5625q-1.140625 -0.578125 -1.78125 -1.609375q-0.640625 -1.046875 -0.640625 -2.375q0 -1.421875 0.75 -2.4375q0.75 -1.03125 2.015625 -1.578125q1.28125 -0.546875 2.859375 -0.546875q1.203125 0 2.171875 0.234375q0.96875 0.21875 1.5625 0.515625l0 -0.71875q0 -1.3125 -0.96875 -2.125q-0.953125 -0.8125 -2.46875 -0.8125q-1.046875 0 -1.984375 0.46875q-0.921875 0.46875 -1.484375 1.265625l-1.96875 -1.515625q0.875 -1.265625 2.328125 -1.953125q1.453125 -0.6875 3.1875 -0.6875q2.9375 0 4.546875 1.453125q1.609375 1.453125 1.609375 4.0625l0 8.5l-2.796875 0l0 -1.671875l-0.15625 0q-0.59375 0.90625 -1.6875 1.5q-1.09375 0.59375 -2.484375 0.59375zm0.515625 -2.34375q1.0625 0 1.9375 -0.515625q0.890625 -0.515625 1.375 -1.390625q0.5 -0.890625 0.5 -1.90625q-0.640625 -0.375 -1.46875 -0.578125q-0.828125 -0.21875 -1.734375 -0.21875q-1.671875 0 -2.46875 0.671875q-0.78125 0.65625 -0.78125 1.75q0 0.96875 0.71875 1.578125q0.71875 0.609375 1.921875 0.609375zm13.725098 1.171875l-5.671875 -12.84375l3.1875 0l3.890625 9.28125l0.140625 0l3.765625 -9.28125l3.171875 0l-8.40625 19.34375l-3.0625 0l2.984375 -6.5zm16.235046 1.171875q-2.046875 0 -3.6875 -0.9375q-1.625 -0.953125 -2.53125 -2.59375q-0.90625 -1.65625 -0.90625 -3.6875q0 -2.03125 0.90625 -3.671875q0.90625 -1.65625 2.53125 -2.59375q1.640625 -0.953125 3.6875 -0.953125q2.03125 0 3.65625 0.953125q1.625 0.953125 2.53125 2.609375q0.90625 1.65625 0.90625 3.65625q0 2.03125 -0.90625 3.6875q-0.90625 1.640625 -2.53125 2.59375q-1.609375 0.9375 -3.65625 0.9375zm0 -2.640625q1.140625 0 2.09375 -0.546875q0.96875 -0.5625 1.546875 -1.59375q0.59375 -1.046875 0.59375 -2.4375q0 -1.390625 -0.59375 -2.421875q-0.578125 -1.046875 -1.546875 -1.59375q-0.953125 -0.5625 -2.09375 -0.5625q-1.140625 0 -2.125 0.5625q-0.96875 0.546875 -1.5625 1.59375q-0.578125 1.03125 -0.578125 2.421875q0 1.390625 0.578125 2.4375q0.59375 1.03125 1.5625 1.59375q0.984375 0.546875 2.125 0.546875zm14.524902 2.640625q-2.453125 0 -3.75 -1.46875q-1.28125 -1.484375 -1.28125 -4.125l0 -8.421875l2.875 0l0 8.015625q0 1.65625 0.765625 2.515625q0.78125 0.84375 2.078125 0.84375q1.078125 0 1.890625 -0.546875q0.828125 -0.5625 1.265625 -1.5q0.453125 -0.9375 0.453125 -2.03125l0 -7.296875l2.84375 0l0 13.59375l-2.6875 0l0 -1.84375l-0.15625 0q-0.59375 0.984375 -1.765625 1.625q-1.171875 0.640625 -2.53125 0.640625zm16.234497 -0.203125q-0.90625 0 -1.703125 -0.28125q-0.78125 -0.28125 -1.28125 -0.796875q-1.140625 -1.09375 -1.140625 -3.078125l0 -7.15625l-2.375 0l0 -2.5l2.375 0l0 -3.84375l2.875 0l0 3.84375l3.328125 0l0 2.5l-3.328125 0l0 6.53125q0 1.125 0.421875 1.578125q0.453125 0.5 1.390625 0.5q0.484375 0 0.828125 -0.109375q0.34375 -0.125 0.765625 -0.390625l0 2.796875q-0.90625 0.40625 -2.15625 0.40625z" fill-rule="nonzero"/><path fill="#000000" fill-opacity="0.0" d="m554.3486 91.664764l85.48035 0" fill-rule="evenodd"/><path stroke="#073042" stroke-width="4.0" stroke-miterlimit="400.0" stroke-linecap="butt" d="m554.3486 91.66476l61.480347 0" fill-rule="evenodd"/><path fill="#073042" stroke="#073042" stroke-width="4.0" stroke-linecap="butt" d="m615.8289 98.27169l18.152405 -6.6069336l-18.152405 -6.606926z" fill-rule="evenodd"/><path fill="#000000" fill-opacity="0.0" d="m896.16595 91.68602l85.480286 0" fill-rule="evenodd"/><path stroke="#073042" stroke-width="4.0" stroke-miterlimit="400.0" stroke-linecap="butt" d="m896.16595 91.68602l61.480286 0" fill-rule="evenodd"/><path fill="#073042" stroke="#073042" stroke-width="4.0" stroke-linecap="butt" d="m957.64624 98.29295l18.152405 -6.6069336l-18.152405 -6.606926z" fill-rule="evenodd"/><path fill="#ffffff" d="m1283.3813 71.33185l0 0c0 -4.1093063 3.3312988 -7.4405594 7.4405518 -7.4405594l179.32361 0c1.9733887 0 3.8659668 0.78391266 5.2613525 2.1792908c1.3952637 1.3953705 2.1791992 3.2879105 2.1791992 5.2612686l0 40.74092c0 4.109314 -3.3311768 7.440567 -7.4405518 7.440567l-179.32361 0c-4.109253 0 -7.4405518 -3.331253 -7.4405518 -7.440567z" fill-rule="evenodd"/><path stroke="#3ddc84" stroke-width="6.666666666666667" stroke-miterlimit="400.0" stroke-linecap="butt" d="m1283.3813 71.33185l0 0c0 -4.1093063 3.3312988 -7.4405594 7.4405518 -7.4405594l179.32361 0c1.9733887 0 3.8659668 0.78391266 5.2613525 2.1792908c1.3952637 1.3953705 2.1791992 3.2879105 2.1791992 5.2612686l0 40.74092c0 4.109314 -3.3311768 7.440567 -7.4405518 7.440567l-179.32361 0c-4.109253 0 -7.4405518 -3.331253 -7.4405518 -7.440567z" fill-rule="evenodd"/><path fill="#000000" d="m1376.8551 100.664185q-2.125 0 -3.765625 -0.953125q-1.640625 -0.96875 -2.53125 -2.71875q-0.890625 -1.765625 -0.890625 -4.078125l0 -11.75l2.90625 0l0 11.90625q0 2.15625 1.109375 3.5q1.125 1.328125 3.171875 1.328125q2.078125 0 3.203125 -1.328125q1.125 -1.34375 1.125 -3.5l0 -11.90625l2.90625 0l0 11.75q0 2.296875 -0.890625 4.0625q-0.875 1.75 -2.5 2.71875q-1.625 0.96875 -3.84375 0.96875zm11.142822 -19.5l2.9375 0l0 19.078125l-2.9375 0l0 -19.078125z" fill-rule="nonzero"/><path fill="#ffffff" d="m59.38619 71.23507l0 0c0 -4.0558624 3.287922 -7.3437805 7.3437767 -7.3437805l178.57228 0c1.9476929 0 3.8156128 0.77371216 5.1928406 2.15094c1.3772278 1.3772278 2.15094 3.2451477 2.15094 5.1928406l0 40.934486c0 4.055855 -3.287918 7.3437805 -7.3437805 7.3437805l-178.57228 0c-4.055855 0 -7.3437767 -3.2879257 -7.3437767 -7.3437805z" fill-rule="evenodd"/><path stroke="#4285f4" stroke-width="6.666666666666667" stroke-miterlimit="400.0" stroke-linecap="butt" d="m59.38619 71.23507l0 0c0 -4.0558624 3.287922 -7.3437805 7.3437767 -7.3437805l178.57228 0c1.9476929 0 3.8156128 0.77371216 5.1928406 2.15094c1.3772278 1.3772278 2.15094 3.2451477 2.15094 5.1928406l0 40.934486c0 4.055855 -3.287918 7.3437805 -7.3437805 7.3437805l-178.57228 0c-4.055855 0 -7.3437767 -3.2879257 -7.3437767 -7.3437805z" fill-rule="evenodd"/><path fill="#000000" d="m131.53227 100.664185q-2.375 0 -4.265625 -1.375q-1.890625 -1.390625 -2.640625 -3.890625l2.78125 -1.125q0.421875 1.59375 1.515625 2.609375q1.09375 1.015625 2.640625 1.015625q1.4375 0 2.4375 -0.75q1.0 -0.75 1.0 -2.046875q0 -1.203125 -0.890625 -1.984375q-0.875 -0.796875 -3.03125 -1.53125l-1.203125 -0.4375q-1.9375 -0.6875 -3.234375 -1.921875q-1.296875 -1.25 -1.296875 -3.296875q0 -1.421875 0.75 -2.609375q0.765625 -1.203125 2.140625 -1.890625q1.375 -0.703125 3.109375 -0.703125q2.484375 0 3.96875 1.21875q1.5 1.203125 2.03125 2.734375l-2.640625 1.109375q-0.265625 -0.953125 -1.125 -1.640625q-0.84375 -0.703125 -2.203125 -0.703125q-1.3125 0 -2.21875 0.703125q-0.90625 0.6875 -0.90625 1.75q0 0.984375 0.8125 1.640625q0.8125 0.65625 2.515625 1.234375l1.234375 0.4375q2.453125 0.84375 3.78125 2.203125q1.328125 1.359375 1.328125 3.625q0 1.875 -0.953125 3.140625q-0.9375 1.265625 -2.421875 1.875q-1.46875 0.609375 -3.015625 0.609375zm14.207489 -0.203125q-0.90625 0 -1.703125 -0.28125q-0.78125 -0.28125 -1.28125 -0.796875q-1.140625 -1.09375 -1.140625 -3.078125l0 -7.15625l-2.375 0l0 -2.5l2.375 0l0 -3.84375l2.875 0l0 3.84375l3.328125 0l0 2.5l-3.328125 0l0 6.53125q0 1.125 0.421875 1.578125q0.453125 0.5 1.390625 0.5q0.484375 0 0.828125 -0.109375q0.34375 -0.125 0.765625 -0.390625l0 2.796875q-0.90625 0.40625 -2.15625 0.40625zm8.870056 0.203125q-1.453125 0 -2.609375 -0.5625q-1.140625 -0.578125 -1.78125 -1.609375q-0.640625 -1.046875 -0.640625 -2.375q0 -1.421875 0.75 -2.4375q0.75 -1.03125 2.015625 -1.578125q1.28125 -0.546875 2.859375 -0.546875q1.203125 0 2.171875 0.234375q0.96875 0.21875 1.5625 0.515625l0 -0.71875q0 -1.3125 -0.96875 -2.125q-0.953125 -0.8125 -2.46875 -0.8125q-1.046875 0 -1.984375 0.46875q-0.921875 0.46875 -1.484375 1.265625l-1.96875 -1.515625q0.875 -1.265625 2.328125 -1.953125q1.453125 -0.6875 3.1875 -0.6875q2.9375 0 4.546875 1.453125q1.609375 1.453125 1.609375 4.0625l0 8.5l-2.796875 0l0 -1.671875l-0.15625 0q-0.59375 0.90625 -1.6875 1.5q-1.09375 0.59375 -2.484375 0.59375zm0.515625 -2.34375q1.0625 0 1.9375 -0.515625q0.890625 -0.515625 1.375 -1.390625q0.5 -0.890625 0.5 -1.90625q-0.640625 -0.375 -1.46875 -0.578125q-0.828125 -0.21875 -1.734375 -0.21875q-1.671875 0 -2.46875 0.671875q-0.78125 0.65625 -0.78125 1.75q0 0.96875 0.71875 1.578125q0.71875 0.609375 1.921875 0.609375zm15.084473 2.140625q-0.90625 0 -1.703125 -0.28125q-0.78125 -0.28125 -1.28125 -0.796875q-1.140625 -1.09375 -1.140625 -3.078125l0 -7.15625l-2.375 0l0 -2.5l2.375 0l0 -3.84375l2.875 0l0 3.84375l3.328125 0l0 2.5l-3.328125 0l0 6.53125q0 1.125 0.421875 1.578125q0.453125 0.5 1.390625 0.5q0.484375 0 0.828125 -0.109375q0.34375 -0.125 0.765625 -0.390625l0 2.796875q-0.90625 0.40625 -2.15625 0.40625zm10.556503 0.203125q-1.96875 0 -3.5625 -0.921875q-1.578125 -0.9375 -2.484375 -2.578125q-0.890625 -1.640625 -0.890625 -3.6875q0 -1.953125 0.859375 -3.609375q0.875 -1.671875 2.421875 -2.65625q1.546875 -0.984375 3.5 -0.984375q2.046875 0 3.53125 0.890625q1.5 0.890625 2.28125 2.46875q0.796875 1.5625 0.796875 3.5625q0 0.53125 -0.0625 0.90625l-10.5 0q0.1875 1.953125 1.390625 3.015625q1.203125 1.046875 2.796875 1.046875q1.3125 0 2.234375 -0.59375q0.9375 -0.609375 1.5 -1.59375l2.375 1.140625q-0.9375 1.671875 -2.484375 2.640625q-1.546875 0.953125 -3.703125 0.953125zm3.59375 -8.765625q-0.046875 -0.75 -0.484375 -1.484375q-0.421875 -0.75 -1.234375 -1.234375q-0.8125 -0.5 -2.015625 -0.5q-1.4375 0 -2.4375 0.875q-1.0 0.875 -1.375 2.34375l7.546875 0z" fill-rule="nonzero"/><path fill="#000000" fill-opacity="0.0" d="m252.60646 91.6859l45.354324 0" fill-rule="evenodd"/><path stroke="#073042" stroke-width="4.0" stroke-miterlimit="400.0" stroke-linecap="butt" d="m252.60646 91.6859l45.354324 0" fill-rule="evenodd"/><path fill="#000000" fill-opacity="0.0" d="m1237.9728 91.6859l45.35437 0" fill-rule="evenodd"/><path stroke="#073042" stroke-width="4.0" stroke-miterlimit="400.0" stroke-linecap="butt" d="m1237.9728 91.6859l45.35437 0" fill-rule="evenodd"/><path fill="#ffffff" fill-opacity="0.8324" d="m0 0l295.62204 0l0 192.0l-295.62204 0z" fill-rule="evenodd"/><path fill="#ffffff" d="m298.0218 91.664764l0 0c0 -22.943733 18.599579 -41.54331 41.543304 -41.54331l173.25986 0l0 0c11.017944 0 21.584656 4.376873 29.37555 12.167755c7.7908936 7.790882 12.167725 18.357586 12.167725 29.375553l0 0l0 0c0 22.943733 -18.599548 41.543304 -41.543274 41.543304l-173.25986 0c-22.943726 0 -41.543304 -18.599571 -41.543304 -41.543304z" fill-rule="evenodd"/><path stroke="#4285f4" stroke-width="8.0" stroke-miterlimit="400.0" stroke-linecap="butt" d="m298.0218 91.664764l0 0c0 -22.943733 18.599579 -41.54331 41.543304 -41.54331l173.25986 0l0 0c11.017944 0 21.584656 4.376873 29.37555 12.167755c7.7908936 7.790882 12.167725 18.357586 12.167725 29.375553l0 0l0 0c0 22.943733 -18.599548 41.543304 -41.543274 41.543304l-173.25986 0c-22.943726 0 -41.543304 -18.599571 -41.543304 -41.543304z" fill-rule="evenodd"/><path fill="#000000" d="m357.754 101.68664q-2.765625 0 -5.046875 -1.296875q-2.28125 -1.3125 -3.59375 -3.59375q-1.296875 -2.296875 -1.296875 -5.078125q0 -2.765625 1.296875 -5.0625q1.3125 -2.296875 3.59375 -3.59375q2.28125 -1.3125 5.046875 -1.3125q4.296875 0 7.0625 3.125l-2.046875 2.0q-0.984375 -1.171875 -2.203125 -1.75q-1.21875 -0.59375 -2.78125 -0.59375q-1.953125 0 -3.546875 0.890625q-1.59375 0.890625 -2.53125 2.53125q-0.9375 1.640625 -0.9375 3.765625q0 2.140625 0.9375 3.78125q0.9375 1.640625 2.53125 2.53125q1.59375 0.890625 3.546875 0.890625q3.25 0 5.46875 -2.6875l2.09375 2.015625q-1.375 1.625 -3.328125 2.53125q-1.9375 0.90625 -4.265625 0.90625zm16.263 0q-2.046875 0 -3.6875 -0.9375q-1.625 -0.953125 -2.53125 -2.59375q-0.90625 -1.65625 -0.90625 -3.6875q0 -2.03125 0.90625 -3.671875q0.90625 -1.65625 2.53125 -2.59375q1.640625 -0.953125 3.6875 -0.953125q2.03125 0 3.65625 0.953125q1.625 0.953125 2.53125 2.609375q0.90625 1.65625 0.90625 3.65625q0 2.03125 -0.90625 3.6875q-0.90625 1.640625 -2.53125 2.59375q-1.609375 0.9375 -3.65625 0.9375zm0 -2.640625q1.140625 0 2.09375 -0.546875q0.96875 -0.5625 1.546875 -1.59375q0.59375 -1.046875 0.59375 -2.4375q0 -1.390625 -0.59375 -2.421875q-0.578125 -1.046875 -1.546875 -1.59375q-0.953125 -0.5625 -2.09375 -0.5625q-1.140625 0 -2.125 0.5625q-0.96875 0.546875 -1.5625 1.59375q-0.578125 1.03125 -0.578125 2.421875q0 1.390625 0.578125 2.4375q0.59375 1.03125 1.5625 1.59375q0.984375 0.546875 2.125 0.546875zm9.454041 -11.375l2.71875 0l0 1.859375l0.171875 0q0.609375 -1.0 1.71875 -1.640625q1.125 -0.640625 2.46875 -0.640625q1.453125 0 2.53125 0.6875q1.09375 0.6875 1.5625 1.84375q0.71875 -1.15625 1.875 -1.84375q1.171875 -0.6875 2.734375 -0.6875q2.359375 0 3.546875 1.421875q1.203125 1.421875 1.203125 3.875l0 8.71875l-2.84375 0l0 -8.234375q0 -3.140625 -2.671875 -3.140625q-1.46875 0 -2.390625 1.171875q-0.921875 1.171875 -0.921875 2.921875l0 7.28125l-2.84375 0l0 -8.234375q0 -3.140625 -2.75 -3.140625q-1.40625 0 -2.3125 1.1875q-0.90625 1.171875 -0.90625 2.9375l0 7.25l-2.890625 0l0 -13.59375zm23.710205 0l2.71875 0l0 1.84375l0.15625 0q0.578125 -0.96875 1.734375 -1.609375q1.171875 -0.65625 2.640625 -0.65625q1.828125 0 3.3125 0.9375q1.5 0.921875 2.359375 2.5625q0.859375 1.640625 0.859375 3.71875q0 2.078125 -0.859375 3.734375q-0.859375 1.65625 -2.359375 2.578125q-1.484375 0.90625 -3.3125 0.90625q-1.46875 0 -2.640625 -0.640625q-1.15625 -0.65625 -1.734375 -1.59375l-0.15625 0l0.15625 1.890625l0 5.671875l-2.875 0l0 -19.34375zm6.8125 11.375q1.09375 0 2.03125 -0.5625q0.953125 -0.578125 1.515625 -1.609375q0.5625 -1.046875 0.5625 -2.40625q0 -1.359375 -0.5625 -2.390625q-0.5625 -1.046875 -1.515625 -1.609375q-0.9375 -0.578125 -2.03125 -0.578125q-1.0625 0 -2.015625 0.578125q-0.9375 0.5625 -1.515625 1.609375q-0.5625 1.03125 -0.5625 2.390625q0 1.359375 0.5625 2.40625q0.578125 1.03125 1.515625 1.609375q0.953125 0.5625 2.015625 0.5625zm16.001068 2.640625q-2.046875 0 -3.6875 -0.9375q-1.625 -0.953125 -2.53125 -2.59375q-0.90625 -1.65625 -0.90625 -3.6875q0 -2.03125 0.90625 -3.671875q0.90625 -1.65625 2.53125 -2.59375q1.640625 -0.953125 3.6875 -0.953125q2.03125 0 3.65625 0.953125q1.625 0.953125 2.53125 2.609375q0.90625 1.65625 0.90625 3.65625q0 2.03125 -0.90625 3.6875q-0.90625 1.640625 -2.53125 2.59375q-1.609375 0.9375 -3.65625 0.9375zm0 -2.640625q1.140625 0 2.09375 -0.546875q0.96875 -0.5625 1.546875 -1.59375q0.59375 -1.046875 0.59375 -2.4375q0 -1.390625 -0.59375 -2.421875q-0.578125 -1.046875 -1.546875 -1.59375q-0.953125 -0.5625 -2.09375 -0.5625q-1.140625 0 -2.125 0.5625q-0.96875 0.546875 -1.5625 1.59375q-0.578125 1.03125 -0.578125 2.421875q0 1.390625 0.578125 2.4375q0.59375 1.03125 1.5625 1.59375q0.984375 0.546875 2.125 0.546875zm14.556122 2.640625q-2.328125 0 -3.828125 -1.0q-1.5 -1.015625 -2.125 -2.640625l2.59375 -1.125q0.484375 1.09375 1.359375 1.671875q0.875 0.5625 2.0 0.5625q1.140625 0 1.90625 -0.40625q0.78125 -0.421875 0.78125 -1.25q0 -0.734375 -0.65625 -1.171875q-0.640625 -0.453125 -2.03125 -0.765625l-1.625 -0.375q-1.625 -0.40625 -2.703125 -1.40625q-1.0625 -1.015625 -1.0625 -2.5625q0 -1.171875 0.703125 -2.078125q0.71875 -0.90625 1.890625 -1.390625q1.1875 -0.5 2.609375 -0.5q1.921875 0 3.34375 0.75q1.421875 0.734375 2.0625 2.171875l-2.46875 1.125q-0.828125 -1.625 -2.90625 -1.625q-1.015625 0 -1.703125 0.421875q-0.671875 0.421875 -0.671875 1.0625q0 1.203125 2.078125 1.734375l1.96875 0.484375q2.0 0.5 3.015625 1.515625q1.03125 1.015625 1.03125 2.515625q0 1.28125 -0.734375 2.25q-0.71875 0.96875 -2.0 1.5q-1.28125 0.53125 -2.828125 0.53125zm9.58902 -16.015625q-0.796875 0 -1.375 -0.5625q-0.5625 -0.578125 -0.5625 -1.390625q0 -0.796875 0.5625 -1.34375q0.578125 -0.5625 1.375 -0.5625q0.796875 0 1.375 0.5625q0.578125 0.546875 0.578125 1.34375q0 0.8125 -0.578125 1.390625q-0.578125 0.5625 -1.375 0.5625zm-1.4375 2.0l2.875 0l0 13.59375l-2.875 0l0 -13.59375zm11.890076 13.8125q-0.90625 0 -1.703125 -0.28125q-0.78125 -0.28125 -1.28125 -0.796875q-1.140625 -1.09375 -1.140625 -3.078125l0 -7.15625l-2.375 0l0 -2.5l2.375 0l0 -3.84375l2.875 0l0 3.84375l3.328125 0l0 2.5l-3.328125 0l0 6.53125q0 1.125 0.421875 1.578125q0.453125 0.5 1.390625 0.5q0.484375 0 0.828125 -0.109375q0.34375 -0.125 0.765625 -0.390625l0 2.796875q-0.90625 0.40625 -2.15625 0.40625zm6.660675 -15.8125q-0.796875 0 -1.375 -0.5625q-0.5625 -0.578125 -0.5625 -1.390625q0 -0.796875 0.5625 -1.34375q0.578125 -0.5625 1.375 -0.5625q0.796875 0 1.375 0.5625q0.578125 0.546875 0.578125 1.34375q0 0.8125 -0.578125 1.390625q-0.578125 0.5625 -1.375 0.5625zm-1.4375 2.0l2.875 0l0 13.59375l-2.875 0l0 -13.59375zm12.718201 14.015625q-2.046875 0 -3.6875 -0.9375q-1.625 -0.953125 -2.53125 -2.59375q-0.90625 -1.65625 -0.90625 -3.6875q0 -2.03125 0.90625 -3.671875q0.90625 -1.65625 2.53125 -2.59375q1.640625 -0.953125 3.6875 -0.953125q2.03125 0 3.65625 0.953125q1.625 0.953125 2.53125 2.609375q0.90625 1.65625 0.90625 3.65625q0 2.03125 -0.90625 3.6875q-0.90625 1.640625 -2.53125 2.59375q-1.609375 0.9375 -3.65625 0.9375zm0 -2.640625q1.140625 0 2.09375 -0.546875q0.96875 -0.5625 1.546875 -1.59375q0.59375 -1.046875 0.59375 -2.4375q0 -1.390625 -0.59375 -2.421875q-0.578125 -1.046875 -1.546875 -1.59375q-0.953125 -0.5625 -2.09375 -0.5625q-1.140625 0 -2.125 0.5625q-0.96875 0.546875 -1.5625 1.59375q-0.578125 1.03125 -0.578125 2.421875q0 1.390625 0.578125 2.4375q0.59375 1.03125 1.5625 1.59375q0.984375 0.546875 2.125 0.546875zm9.454071 -11.375l2.71875 0l0 1.859375l0.171875 0q0.578125 -1.0 1.75 -1.640625q1.171875 -0.640625 2.53125 -0.640625q2.453125 0 3.734375 1.453125q1.28125 1.453125 1.28125 3.984375l0 8.578125l-2.84375 0l0 -8.203125q0 -1.609375 -0.8125 -2.390625q-0.796875 -0.78125 -2.171875 -0.78125q-1.015625 0 -1.8125 0.5625q-0.78125 0.546875 -1.21875 1.484375q-0.4375 0.9375 -0.4375 2.03125l0 7.296875l-2.890625 0l0 -13.59375z" fill-rule="nonzero"/><path fill="#ffffff" fill-opacity="0.8324" d="m1240.3761 0l295.62207 0l0 192.0l-295.62207 0z" fill-rule="evenodd"/><path fill="#ffffff" d="m981.6358 91.664764l0 0c0 -22.943733 18.59961 -41.54331 41.543335 -41.54331l173.25983 0l0 0c11.017944 0 21.584717 4.376873 29.37561 12.167755c7.7907715 7.790882 12.167725 18.357586 12.167725 29.375553l0 0l0 0c0 22.943733 -18.59961 41.543304 -41.543335 41.543304l-173.25983 0c-22.943726 0 -41.543335 -18.599571 -41.543335 -41.543304z" fill-rule="evenodd"/><path stroke="#4285f4" stroke-width="8.0" stroke-miterlimit="400.0" stroke-linecap="butt" d="m981.6358 91.664764l0 0c0 -22.943733 18.59961 -41.54331 41.543335 -41.54331l173.25983 0l0 0c11.017944 0 21.584717 4.376873 29.37561 12.167755c7.7907715 7.790882 12.167725 18.357586 12.167725 29.375553l0 0l0 0c0 22.943733 -18.59961 41.543304 -41.543335 41.543304l-173.25983 0c-22.943726 0 -41.543335 -18.599571 -41.543335 -41.543304z" fill-rule="evenodd"/><path fill="#000000" d="m1060.5325 82.18664l6.109375 0q2.953125 0 5.15625 1.203125q2.203125 1.1875 3.390625 3.359375q1.1875 2.171875 1.1875 4.96875q0 2.796875 -1.1875 4.96875q-1.1875 2.171875 -3.390625 3.375q-2.203125 1.203125 -5.15625 1.203125l-6.109375 0l0 -19.078125zm6.03125 16.3125q3.25 0 5.046875 -1.796875q1.796875 -1.8125 1.796875 -4.984375q0 -3.171875 -1.796875 -4.96875q-1.796875 -1.796875 -5.046875 -1.796875l-3.09375 0l0 13.546875l3.09375 0zm12.143555 -10.828125l2.71875 0l0 2.0l0.171875 0q0.453125 -1.046875 1.546875 -1.71875q1.109375 -0.6875 2.390625 -0.6875q0.9375 0 1.65625 0.265625l0 2.984375q-1.09375 -0.46875 -2.109375 -0.46875q-1.515625 0 -2.5 1.171875q-0.984375 1.171875 -0.984375 2.84375l0 7.203125l-2.890625 0l0 -13.59375zm14.474731 14.015625q-1.453125 0 -2.609375 -0.5625q-1.140625 -0.578125 -1.78125 -1.609375q-0.640625 -1.046875 -0.640625 -2.375q0 -1.421875 0.75 -2.4375q0.75 -1.03125 2.015625 -1.578125q1.28125 -0.546875 2.859375 -0.546875q1.203125 0 2.171875 0.234375q0.96875 0.21875 1.5625 0.515625l0 -0.71875q0 -1.3125 -0.96875 -2.125q-0.953125 -0.8125 -2.46875 -0.8125q-1.046875 0 -1.984375 0.46875q-0.921875 0.46875 -1.484375 1.265625l-1.96875 -1.515625q0.875 -1.265625 2.328125 -1.953125q1.453125 -0.6875 3.1875 -0.6875q2.9375 0 4.546875 1.453125q1.609375 1.453125 1.609375 4.0625l0 8.5l-2.796875 0l0 -1.671875l-0.15625 0q-0.59375 0.90625 -1.6875 1.5q-1.09375 0.59375 -2.484375 0.59375zm0.515625 -2.34375q1.0625 0 1.9375 -0.515625q0.890625 -0.515625 1.375 -1.390625q0.5 -0.890625 0.5 -1.90625q-0.640625 -0.375 -1.46875 -0.578125q-0.828125 -0.21875 -1.734375 -0.21875q-1.671875 0 -2.46875 0.671875q-0.78125 0.65625 -0.78125 1.75q0 0.96875 0.71875 1.578125q0.71875 0.609375 1.921875 0.609375zm8.021973 -11.671875l3.125 0l2.796875 9.78125l0.09375 0l3.078125 -9.78125l2.953125 0l3.0625 9.78125l0.109375 0l2.796875 -9.78125l3.0625 0l-4.359375 13.59375l-3.015625 0l-3.140625 -9.84375l-0.109375 0l-3.125 9.84375l-2.984375 0l-4.34375 -13.59375zm24.598755 -2.0q-0.796875 0 -1.375 -0.5625q-0.5625 -0.578125 -0.5625 -1.390625q0 -0.796875 0.5625 -1.34375q0.578125 -0.5625 1.375 -0.5625q0.796875 0 1.375 0.5625q0.578125 0.546875 0.578125 1.34375q0 0.8125 -0.578125 1.390625q-0.578125 0.5625 -1.375 0.5625zm-1.4375 2.0l2.875 0l0 13.59375l-2.875 0l0 -13.59375zm6.4453125 0l2.71875 0l0 1.859375l0.171875 0q0.578125 -1.0 1.75 -1.640625q1.171875 -0.640625 2.53125 -0.640625q2.453125 0 3.734375 1.453125q1.28125 1.453125 1.28125 3.984375l0 8.578125l-2.84375 0l0 -8.203125q0 -1.609375 -0.8125 -2.390625q-0.796875 -0.78125 -2.171875 -0.78125q-1.015625 0 -1.8125 0.5625q-0.78125 0.546875 -1.21875 1.484375q-0.4375 0.9375 -0.4375 2.03125l0 7.296875l-2.890625 0l0 -13.59375zm21.467896 19.78125q-2.484375 0 -4.125 -1.140625q-1.640625 -1.125 -2.1875 -2.734375l2.65625 -1.109375q0.421875 1.09375 1.390625 1.75q0.984375 0.671875 2.265625 0.671875q1.890625 0 2.953125 -1.125q1.0625 -1.109375 1.0625 -3.171875l0 -1.296875l-0.15625 0q-0.65625 0.984375 -1.78125 1.546875q-1.125 0.5625 -2.5625 0.5625q-1.734375 0 -3.1875 -0.875q-1.453125 -0.890625 -2.328125 -2.5q-0.859375 -1.609375 -0.859375 -3.703125q0 -2.078125 0.859375 -3.6875q0.875 -1.609375 2.328125 -2.5q1.453125 -0.890625 3.1875 -0.890625q1.421875 0 2.546875 0.578125q1.140625 0.5625 1.796875 1.546875l0.15625 0l0 -1.703125l2.75 0l0 12.875q0 2.1875 -0.859375 3.734375q-0.84375 1.5625 -2.375 2.359375q-1.53125 0.8125 -3.53125 0.8125zm0.03125 -8.671875q1.09375 0 2.0 -0.53125q0.90625 -0.53125 1.4375 -1.53125q0.546875 -1.0 0.546875 -2.390625q0 -1.40625 -0.546875 -2.421875q-0.53125 -1.015625 -1.4375 -1.53125q-0.90625 -0.515625 -2.0 -0.515625q-1.09375 0 -2.015625 0.515625q-0.921875 0.515625 -1.46875 1.53125q-0.546875 1.015625 -0.546875 2.421875q0 1.390625 0.546875 2.40625q0.546875 1.015625 1.46875 1.53125q0.921875 0.515625 2.015625 0.515625z" fill-rule="nonzero"/></g></svg>